<svg width="512" height="512" viewBox="0 0 512 512" fill="none" xmlns="http://www.w3.org/2000/svg">
<path d="M481 31V301H463.321V355.643H445.643V391H427.964V408.679H410.286V427.964H391V445.643H355.643V463.321H318.679V481H193.321V463.321H157.964V445.643H121V427.964H103.321V408.679H85.6429V391H67.9643V355.643H48.6786V318.679H31V193.321H48.6786V157.964H67.9643V121H85.6429V103.321H103.321V85.6429H121V66.3571H157.964V48.6786H193.321V31H481ZM265.643 138.679H247.964V175.643H228.679V211H211V228.679H175.643V247.964H138.679V265.643H175.643V283.321H211V301H228.679V337.964H247.964V373.321H265.643V337.964H283.321V301H301V283.321H337.964V265.643H373.321V247.964H337.964V228.679H301V211H283.321V175.643H265.643V138.679Z" fill="#FEB200"/>
<path d="M265.644 138.68V175.644H283.322V211.001H301.001V228.68H337.965V247.965H373.322V265.644H337.965V283.323H301.001V301.001H283.322V337.965H265.644V373.323H247.965V337.965H228.679V301.001H211.001V283.323H175.643V265.644H138.679V247.965H175.643V228.68H211.001V211.001H228.679V175.644H247.965V138.68H265.644Z" fill="#FEFEFE"/>
</svg>
